<svg width="75" height="71" viewBox="0 0 75 71" fill="none" xmlns="http://www.w3.org/2000/svg">
<path d="M69.1344 25.7257C70.2431 19.2199 68.6875 13.89 65.6759 10.2187C63.9624 8.14823 61.7928 6.60004 59.3932 5.66696C57.0196 4.74001 54.3885 4.41041 51.7641 4.77438C46.724 5.46727 41.58 8.71227 37.8232 15.132C37.1706 16.2379 37.0737 17.4222 35.9994 16.9094C35.8512 16.8349 34.4182 16.0315 34.3033 15.9256C29.0716 11.5323 23.3636 10.734 18.453 12.2845C15.8767 13.093 13.502 14.5512 11.5032 16.464C9.49373 18.3911 7.86332 20.796 6.81213 23.4898C4.93229 28.2998 4.88648 34.0387 7.71969 39.7157L3.03055 40.7729C0.210231 34.3619 0.415068 27.8562 2.59585 22.3071C3.90718 18.9435 5.95659 15.9288 8.51049 13.4834C11.0628 11.0265 14.135 9.15937 17.4691 8.10808C23.1374 6.31479 29.2985 7.08293 35.2097 11.1192C39.6999 4.73791 45.7792 1.21011 51.584 0.416732C54.9974 -0.0532203 58.3682 0.361279 61.4307 1.55238C64.4672 2.73734 67.1922 4.67564 69.3277 7.26218C72.8178 11.4967 74.7243 17.4666 73.8113 24.6712L69.1344 25.7257ZM42.8288 65.1765C48.8954 58.8473 54.0044 53.3212 58.0946 47.9648C61.708 43.2552 64.5796 38.629 66.6766 33.6621L71.8286 32.5006C69.4903 38.8282 66.0879 44.5328 61.6344 50.3546C57.0733 56.3085 51.4654 62.3186 44.803 69.2496C44.1012 69.995 42.9976 70.2798 42.0885 69.8735C33.965 66.2761 27.0994 63.0662 21.2348 59.4628C15.5491 55.9749 10.869 52.1285 7.0158 47.2567L12.1678 46.0952C15.4462 49.7902 19.3279 52.846 23.9187 55.6699C29.1946 58.9146 35.4613 61.8761 42.8288 65.1765Z" fill="#284B63"/>
</svg>
